<?xml version="1.0" standalone="yes"?>

<svg version="1.1" viewBox="0.0 0.0 960.0 540.0" fill="none" stroke="none" stroke-linecap="square" stroke-miterlimit="10" xmlns="http://www.w3.org/2000/svg" xmlns:xlink="http://www.w3.org/1999/xlink"><clipPath id="g2269a408c9_0_5.0"><path d="m0 0l960.0 0l0 540.0l-960.0 0l0 -540.0z" clip-rule="nonzero"></path></clipPath><g clip-path="url(#g2269a408c9_0_5.0)"><path fill="#000000" fill-opacity="0.0" d="m0 0l960.0 0l0 540.0l-960.0 0z" fill-rule="evenodd"></path><path fill="#0138ff" fill-opacity="0.6615" d="m0 0.005249344l960.0 0l0 540.0l-960.0 0z" fill-rule="evenodd"></path><path stroke="#ff0000" stroke-width="8.0" stroke-linejoin="round" stroke-linecap="butt" d="m0 0.005249344l960.0 0l0 540.0l-960.0 0z" fill-rule="evenodd"></path><path fill="#ff0000" d="m209.52151 298.80524l0 -53.359375l24.953125 0q8.171875 0 13.046875 4.765625q4.875 4.75 4.875 12.4375q0 7.59375 -5.0 12.40625q-5.0 4.796875 -12.921875 4.796875l-13.59375 0l0 18.953125l-11.359375 0zm23.4375 -28.953125q3.359375 0 5.59375 -1.921875q2.25 -1.921875 2.25 -5.28125q0 -3.359375 -2.25 -5.28125q-2.234375 -1.921875 -5.59375 -1.921875l-12.078125 0l0 14.40625l12.078125 0zm56.638702 28.953125l-10.484375 -18.953125l-8.3125 0l0 18.953125l-11.359375 0l0 -53.359375l24.953125 0q8.171875 0 13.046875 4.84375q4.875 4.828125 4.875 12.359375q0 6.234375 -3.328125 10.484375q-3.3125 4.234375 -8.34375 5.359375l12.0 20.3125l-13.046875 0zm-6.875 -28.953125q3.4375 0 5.71875 -1.921875q2.28125 -1.921875 2.28125 -5.28125q0 -3.359375 -2.28125 -5.28125q-2.28125 -1.921875 -5.71875 -1.921875l-11.921875 0l0 14.40625l11.921875 0zm53.43994 29.90625q-12.15625 0 -20.0 -7.75q-7.84375 -7.765625 -7.84375 -19.84375q0 -12.0 7.84375 -19.796875q7.84375 -7.796875 20.0 -7.796875q12.234375 0 20.078125 7.796875q7.84375 7.796875 7.84375 19.796875q0 12.0 -7.84375 19.796875q-7.84375 7.796875 -20.078125 7.796875zm0 -10.078125q7.03125 0 11.625 -4.828125q4.609375 -4.84375 4.609375 -12.6875q0 -7.59375 -4.4375 -12.546875q-4.4375 -4.96875 -11.796875 -4.96875q-7.359375 0 -11.765625 4.96875q-4.390625 4.953125 -4.390625 12.546875q0 7.6875 4.46875 12.609375q4.484375 4.90625 11.6875 4.90625zm45.434326 10.078125q-8.953125 0 -14.3125 -5.1875l4.953125 -8.71875q4.078125 3.828125 8.484375 3.828125q3.84375 0 6.078125 -2.3125q2.234375 -2.328125 2.234375 -6.25l0 -35.671875l11.359375 0l0 35.84375q0 8.796875 -4.953125 13.640625q-4.953125 4.828125 -13.84375 4.828125zm29.364319 -0.953125l0 -53.359375l37.765625 0l0 10.0l-26.40625 0l0 11.28125l25.84375 0l0 10.0l-25.84375 0l0 12.078125l26.40625 0l0 10.0l-37.765625 0zm72.4837 0.953125q-12.40625 0 -20.40625 -7.875q-8.0 -7.875 -8.0 -19.71875q0 -7.84375 3.71875 -14.234375q3.71875 -6.40625 10.28125 -9.875q6.5625 -3.484375 14.40625 -3.484375q14.71875 0 22.3125 13.03125l-9.75 4.796875q-1.6875 -3.28125 -5.046875 -5.515625q-3.359375 -2.234375 -7.515625 -2.234375q-7.28125 0 -12.0 5.0q-4.71875 5.0 -4.71875 12.515625q0 7.765625 4.796875 12.640625q4.796875 4.875 11.921875 4.875q4.15625 0 7.515625 -2.1875q3.359375 -2.203125 5.046875 -5.5625l9.75 4.71875q-7.59375 13.109375 -22.3125 13.109375zm41.42871 -0.953125l0 -43.359375l-15.59375 0l0 -10.0l42.5625 0l0 10.0l-15.515625 0l0 43.359375l-11.453125 0zm101.13373 0l0 -37.359375l-15.046875 37.359375l-4.953125 0l-15.046875 -37.359375l0 37.359375l-11.359375 0l0 -53.359375l15.921875 0l12.953125 32.234375l12.96875 -32.234375l16.0 0l0 53.359375l-11.4375 0zm58.790527 0l-3.28125 -9.046875l-22.875 0l-3.359375 9.046875l-12.96875 0l20.640625 -53.359375l14.25 0l20.5625 53.359375l-12.96875 0zm-14.71875 -42.0l-8.3125 22.953125l16.640625 0l-8.328125 -22.953125zm69.43872 42.0l-25.4375 -34.796875l0 34.796875l-11.359375 0l0 -53.359375l11.671875 0l24.734375 33.515625l0 -33.515625l11.359375 0l0 53.359375l-10.96875 0z" fill-rule="nonzero"></path></g></svg>

